<svg fill="none" height="47" viewBox="0 0 147 47" width="147" xmlns="http://www.w3.org/2000/svg" xmlns:xlink="http://www.w3.org/1999/xlink"><linearGradient id="a" gradientUnits="userSpaceOnUse" x1=".004807" x2="35.8335" y1="10.4665" y2="10.4665"><stop offset="0" stop-color="#143960"/><stop offset=".2175" stop-color="#133c63"/><stop offset=".3922" stop-color="#12446d"/><stop offset=".5521" stop-color="#0f537e"/><stop offset=".7031" stop-color="#0b6796"/><stop offset=".8478" stop-color="#0781b5"/><stop offset=".9861" stop-color="#01a0da"/><stop offset="1" stop-color="#00a4de"/></linearGradient><linearGradient id="b" gradientUnits="userSpaceOnUse" x1="24.3878" x2="24.3878" y1="31.6842" y2="14.4865"><stop offset=".3" stop-color="#00a4de"/><stop offset=".4528" stop-color="#0588bd"/><stop offset=".9" stop-color="#143960"/></linearGradient><linearGradient id="c" gradientUnits="userSpaceOnUse" x1=".004807" x2="27.4321" y1="21.3745" y2="21.3745"><stop offset="0" stop-color="#143960"/><stop offset=".2841" stop-color="#143b63"/><stop offset=".455" stop-color="#12426b"/><stop offset=".5959" stop-color="#104e79"/><stop offset=".7205" stop-color="#0d608e"/><stop offset=".8343" stop-color="#0976a8"/><stop offset=".9388" stop-color="#0491c8"/><stop offset="1" stop-color="#00a4de"/></linearGradient><linearGradient id="d" gradientUnits="userSpaceOnUse" x1=".004807" x2="27.4321" y1="35.1607" y2="35.1607"><stop offset="0" stop-color="#00a4de"/><stop offset=".0727" stop-color="#0588bd"/><stop offset=".1525" stop-color="#0a6fa0"/><stop offset=".2422" stop-color="#0e5b88"/><stop offset=".3443" stop-color="#104c76"/><stop offset=".4658" stop-color="#12416a"/><stop offset=".626" stop-color="#143b62"/><stop offset=".9767" stop-color="#143960"/></linearGradient><linearGradient id="e" gradientUnits="userSpaceOnUse" x1=".004606" x2="27.432" y1="24.6079" y2="24.6079"><stop offset="0" stop-color="#00a4de"/><stop offset=".0121" stop-color="#019dd6"/><stop offset=".0674" stop-color="#0683b7"/><stop offset=".1302" stop-color="#0b6b9b"/><stop offset=".2011" stop-color="#0e5985"/><stop offset=".2837" stop-color="#114a74"/><stop offset=".3861" stop-color="#134069"/><stop offset=".5296" stop-color="#143b62"/><stop offset=".9281" stop-color="#143960"/></linearGradient><linearGradient id="f" gradientUnits="userSpaceOnUse" x1="28.9842" x2="57.9837" y1="12.13" y2="12.13"><stop offset=".4186" stop-color="#00a4de"/><stop offset=".506" stop-color="#019dd6"/><stop offset=".6399" stop-color="#058bc1"/><stop offset=".8036" stop-color="#0a6e9e"/><stop offset=".9893" stop-color="#12466e"/><stop offset="1" stop-color="#12436b"/></linearGradient><linearGradient id="g" gradientUnits="userSpaceOnUse" x1="30.5565" x2="57.9838" y1="24.821" y2="24.821"><stop offset="0" stop-color="#00a4de"/><stop offset=".355" stop-color="#00a2dc"/><stop offset=".5195" stop-color="#029cd4"/><stop offset=".6447" stop-color="#0491c8"/><stop offset=".7501" stop-color="#0681b5"/><stop offset=".843" stop-color="#0a6d9e"/><stop offset=".9257" stop-color="#0f5581"/><stop offset="1" stop-color="#143960"/></linearGradient><linearGradient id="h" gradientUnits="userSpaceOnUse" x1="33.6154" x2="33.6154" y1="45.5008" y2="31.7172"><stop offset=".15" stop-color="#00a4de"/><stop offset=".2712" stop-color="#019cd5"/><stop offset=".4688" stop-color="#0588bd"/><stop offset=".7182" stop-color="#0c6695"/><stop offset="1" stop-color="#143960"/></linearGradient><g fill="#00a4de"><path d="m81.6309 4.83433-.0501-.00983-3.4948 9.7108h-1.7524l-3.4747-9.6705-.0501.00982.2504 5.75638v2.0627l1.4019.2717v1.5798h-5.4074v-1.5798l1.3919-.2717v-9.40913l-1.3919-.27173v-1.57973h1.3919 3.4147l3.3245 9.66069h.0501l3.3545-9.66069h4.8166v1.57973l-1.4019.27173v9.40913l1.4019.2717v1.5798h-5.4073v-1.5798l1.3919-.2717v-2.0627z"/><path d="m86.2974 9.56531c0-1.44909.4005-2.6469 1.2116-3.57271s1.9326-1.3886 3.3545-1.3886c1.432 0 2.5535.46279 3.3646 1.3886s1.2116 2.11356 1.2116 3.57271v.19114c0 1.46925-.4005 2.65675-1.2116 3.58255s-1.9226 1.3788-3.3445 1.3788c-1.442 0-2.5635-.4631-3.3746-1.3788-.8111-.9258-1.2116-2.1133-1.2116-3.58255zm2.6135.19114c0 .88555.1602 1.59995.4706 2.14335.3104.5333.8111.8053 1.5021.8053.6709 0 1.1715-.2717 1.482-.8151.3104-.5435.4706-1.248.4706-2.13355v-.19114c0-.86543-.1602-1.56995-.4706-2.11336-.3205-.54341-.8111-.81517-1.4921-.81517-.6809 0-1.1816.27176-1.492.81517s-.4706 1.24793-.4706 2.11336z"/><path d="m96.3511 12.9567 1.2517-.2717v-6.04822l-1.3919-.27173v-1.59005h3.8251l.12 1.39891c.321-.50315.721-.88545 1.192-1.15716.471-.2717 1.001-.41275 1.582-.41275.981 0 1.742.31188 2.293.92573.551.61386.821 1.59012.821 2.90839v4.24688l1.252.2717v1.5797h-4.997v-1.5797l1.122-.2717v-4.23656c0-.6541-.13-1.11738-.391-1.38909-.26-.2717-.661-.41225-1.191-.41225-.351 0-.661.0704-.932.21128-.27.14089-.5.34176-.691.6034v5.22322l1.062.2717v1.5797h-4.9269z"/><path d="m112.603 14.7178c-1.402 0-2.513-.4532-3.354-1.3488-.841-.9057-1.252-2.0425-1.252-3.43123v-.36263c0-1.44909.401-2.63635 1.192-3.57222s1.852-1.39892 3.184-1.39892c1.312 0 2.323.39264 3.044 1.18763s1.082 1.86162 1.082 3.21009v1.42888h-5.788l-.02.0501c.05.6441.26 1.1674.641 1.5901.38.4226.891.624 1.542.624.58 0 1.061-.0603 1.442-.171.38-.1207.801-.3017 1.251-.5533l.711 1.6201c-.4.322-.921.5834-1.552.8048s-1.342.3224-2.123.3224zm-.23-8.08102c-.481 0-.871.19149-1.152.55377-.28.37233-.45.86539-.52 1.46918l.03.04029h3.204v-.23193c0-.55347-.13-1.0059-.39-1.33798-.261-.33208-.651-.49333-1.172-.49333z"/><path d="m127.564 6.37564-.902.1307-3.565 9.47936c-.28.7045-.651 1.2881-1.121 1.7611-.471.473-1.172.7144-2.123.7144-.22 0-.431-.0199-.621-.0501-.19-.0402-.42-.0904-.681-.1508l.301-1.9222c.08.01.17.0201.26.0402.09.0101.17.0202.23.0202.441 0 .771-.111 1.002-.3223.23-.2114.41-.4831.54-.7951l.301-.7346-3.074-8.02001-.902-.14102v-1.59006h4.747v1.59006l-1.082.18131 1.322 3.89452.13.7042.05.0103 1.533-4.59919-1.092-.18083v-1.59005h4.747z"/><path d="m132.18 11.0042c0-.7044.19-1.31811.58-1.83133.391-.51322.982-1.04667 1.773-1.6102-.411-.55348-.711-1.05663-.911-1.50947-.201-.45285-.301-.92546-.301-1.39843 0-1.0365.321-1.87196.972-2.48581.64-.62392 1.512-.93605 2.593-.93605.951 0 1.722.2922 2.313.88593s.891 1.30809.891 2.14333c0 .58366-.15 1.12717-.44 1.6102-.291.48303-.691.91577-1.202 1.27804l-.831.59357 2.473 2.89802c.211-.3622.381-.75484.501-1.16743.12-.42265.18-.86526.18-1.32816h1.953c0 .82518-.1 1.59-.3 2.28439-.201.6943-.511 1.3181-.932 1.8514l1.863 2.194-.02.0403h-2.904l-.691-.8049c-.511.3321-1.031.5733-1.572.7444s-1.112.2516-1.733.2516c-1.301 0-2.343-.3422-3.114-1.0265s-1.141-1.58-1.141-2.6769zm4.396 1.7011c.32 0 .63-.0404.951-.1209.32-.0805.621-.2011.911-.3621l-2.684-3.13001-.17.12087c-.3.29183-.51.57344-.62.84514-.111.2717-.171.5437-.171.8255 0 .5333.16.9762.491 1.3183.33.3321.761.5032 1.292.5032zm-.912-8.08099c0 .26164.061.52332.191.79503.13.2717.32.5735.58.90558l.772-.50316c.33-.21132.56-.44244.68-.66383.121-.23145.171-.4732.171-.74491 0-.30189-.11-.56334-.331-.80485-.22-.23146-.501-.35231-.851-.35231-.391 0-.691.13096-.891.3926-.22.26164-.321.58339-.321.97585z"/><path d="m75.2525 17.5557c1.492 0 2.6736.3823 3.5348 1.1571.8612.7749 1.2917 1.7815 1.2917 3.0293 0 1.2579-.4305 2.264-1.2917 3.0288s-2.0428 1.1473-3.5348 1.1473h-2.2031v2.9084l1.4019.2712v1.5802h-5.4074v-1.5802l1.392-.2712v-9.4092l-1.392-.2717v-1.59h1.392zm-2.2131 6.3297h2.203c.731 0 1.2818-.2013 1.6523-.6039.3705-.4025.5607-.9057.5607-1.5296 0-.634-.1902-1.147-.5607-1.5596s-.9213-.6142-1.6523-.6142h-2.203z"/><path d="m85.2459 30.8589c-1.4019 0-2.5134-.4527-3.3545-1.3483-.8412-.9057-1.2518-2.043-1.2518-3.4317v-.3622c0-1.4491.4005-2.6363 1.1916-3.5722s1.8526-1.3989 3.1844-1.3989c1.3118 0 2.3231.3926 3.0441 1.1876.7209.795 1.0815 1.8617 1.0815 3.2101v1.4289h-5.7879l-.02.0501c.05.6441.2603 1.1674.6408 1.5901.3806.4226.8913.624 1.5422.624.5808 0 1.0614-.0603 1.4419-.171.3805-.1207.8011-.3022 1.2517-.5537l.711 1.6205c-.4005.322-.9213.5834-1.5521.8048-.6309.2114-1.3318.3219-2.1229.3219zm-.2303-8.0903c-.4807 0-.8712.191-1.1516.5532-.2804.3724-.4506.8654-.5207 1.4692l.03.0403h3.2044v-.2314c0-.5535-.1302-1.0064-.3906-1.3385-.2503-.322-.6408-.4928-1.1715-.4928z"/><path d="m90.1529 29.0978 1.2517-.2713v-6.0379l-1.3919-.2717v-1.59h3.8251l.1202 1.3984c.3204-.5032.721-.8855 1.1917-1.1572.4706-.2717 1.0013-.4122 1.5821-.4122.9813 0 1.7424.3118 2.2932.9257.5507.6138.821 1.5896.821 2.9079v4.2468l1.252.2718v1.5797h-4.9971v-1.5797l1.1216-.2718v-4.2365c0-.6541-.1302-1.1169-.3906-1.3886-.2603-.2717-.6608-.4127-1.1916-.4127-.3504 0-.6609.0704-.9313.2112-.2703.1409-.5006.3423-.6909.6039v5.2227l1.0614.2718v1.5797h-4.9266z"/><path d="m109.769 24.2776h-1.752l-.28-1.2181c-.181-.1409-.401-.2615-.681-.3621-.271-.1007-.571-.1411-.901-.1411-.461 0-.822.1007-1.092.3121-.27.2113-.4.4629-.4.7748 0 .2919.13.5434.38.7346.26.1912.771.3726 1.542.5135 1.202.2415 2.093.5935 2.674 1.0564.581.463.871 1.1072.871 1.9223 0 .8755-.371 1.5898-1.122 2.1433s-1.732.8353-2.964.8353c-.751 0-1.432-.1108-2.052-.3321-.621-.2214-1.182-.5333-1.663-.9459l-.03-2.1836h1.833l.36 1.2677c.16.1308.371.2315.641.2918.271.0604.551.0909.841.0909.531 0 .942-.1006 1.212-.2918.28-.1912.421-.4531.421-.7852 0-.2919-.141-.5331-.421-.7444-.28-.2114-.801-.3926-1.552-.5636-1.142-.2315-2.003-.584-2.584-1.0368-.58-.4629-.871-1.0865-.871-1.8815 0-.8151.331-1.5196 1.002-2.1133.67-.5937 1.622-.8854 2.853-.8854.751 0 1.462.1004 2.133.3016.671.2013 1.202.4627 1.582.7848z"/><path d="m111.121 29.0978 1.262-.2712v-6.0379l-1.402-.2717v-1.5901h4.015v7.8997l1.252.2712v1.5803h-5.137v-1.5803zm3.885-10.5058h-2.613v-1.9724h2.613z"/><path d="m116.969 25.7069c0-1.4491.401-2.6469 1.212-3.5727s1.933-1.3886 3.355-1.3886c1.431 0 2.553.4628 3.364 1.3886s1.212 2.1136 1.212 3.5727v.1912c0 1.4692-.401 2.6567-1.212 3.5825s-1.923 1.3783-3.344 1.3783c-1.442 0-2.564-.4626-3.375-1.3783-.811-.9258-1.212-2.1133-1.212-3.5825zm2.624.1912c0 .8855.16 1.5999.471 2.1433.31.5333.811.8048 1.502.8048.67 0 1.171-.2712 1.482-.8146.31-.5435.47-1.248.47-2.1335v-.1912c0-.8654-.16-1.5699-.47-2.1133-.321-.5435-.812-.8152-1.492-.8152-.681 0-1.182.2717-1.492.8152-.311.5434-.471 1.2479-.471 2.1133z"/><path d="m127.023 29.0978 1.252-.2713v-6.0379l-1.392-.2717v-1.59h3.825l.12 1.3984c.321-.5032.721-.8855 1.192-1.1572.47-.2717 1.001-.4122 1.582-.4122.981 0 1.742.3118 2.293.9257.551.6138.821 1.5896.821 2.9079v4.2468l1.252.2718v1.5797h-4.997v-1.5797l1.122-.2718v-4.2365c0-.6541-.13-1.1169-.391-1.3886-.26-.2717-.661-.4127-1.192-.4127-.35 0-.66.0704-.931.2112-.27.1409-.5.3423-.691.6039v5.2227l1.062.2718v1.5797h-4.927z"/><path d="m146.639 24.2776h-1.752l-.28-1.2181c-.181-.1409-.401-.2615-.681-.3621-.271-.1007-.571-.1411-.902-.1411-.46 0-.821.1007-1.091.3121-.27.2113-.401.4629-.401.7748 0 .2919.131.5434.381.7346.26.1912.771.3726 1.542.5135 1.202.2415 2.093.5935 2.674 1.0564.581.463.871 1.1072.871 1.9223 0 .8755-.371 1.5898-1.122 2.1433s-1.732.8353-2.964.8353c-.751 0-1.432-.1108-2.052-.3321-.621-.2214-1.182-.5333-1.663-.9459l-.03-2.1836h1.823l.36 1.2677c.16.1308.371.2315.641.2918.271.0604.551.0909.841.0909.531 0 .942-.1006 1.212-.2918.28-.1912.42-.4531.42-.7852 0-.2919-.14-.5331-.42-.7444-.281-.2114-.801-.3926-1.552-.5636-1.142-.2315-2.003-.584-2.584-1.0368-.581-.4629-.871-1.0865-.871-1.8815 0-.8151.331-1.5196 1.001-2.1133.671-.5937 1.623-.8854 2.854-.8854.751 0 1.462.1004 2.133.3016.671.2013 1.202.4627 1.582.7848z"/><path d="m78.9474 37.8833h-1.9626l-.3404-1.8013c-.2303-.1409-.5608-.2721-.9914-.3828-.4406-.1107-.9012-.1607-1.3919-.1607-.7209 0-1.2717.1507-1.6623.4526-.3905.3018-.5907.6942-.5907 1.1773 0 .4427.2002.8053.6108 1.0972.4105.2817 1.1115.5835 2.1229.9056 1.4419.4025 2.5334.9359 3.2744 1.59.7411.6541 1.1115 1.5295 1.1115 2.6062 0 1.1271-.4406 2.0128-1.3218 2.6568-.8812.6441-2.0528.9759-3.4948.9759-1.0314 0-1.9626-.1608-2.8037-.4929-.8311-.332-1.5322-.7847-2.0829-1.3684v-2.7374h2.0228l.2804 1.8618c.2603.2113.6208.3922 1.0714.5331s.9513.2113 1.512.2113c.721 0 1.2618-.1509 1.6323-.4427.3705-.2919.5608-.6842.5608-1.1773 0-.5032-.1803-.9057-.5308-1.2176-.3605-.3019-.9813-.5936-1.8725-.8653-1.5521-.4529-2.7137-.9866-3.5148-1.6004-.7911-.6139-1.1916-1.4692-1.1916-2.5359s.4506-1.932 1.3418-2.6062c.9012-.6743 2.0228-1.0263 3.3746-1.0363 1.0014 0 1.9226.1509 2.7437.4628.8211.312 1.5221.7143 2.0828 1.2275v2.6671z"/><path d="m84.7856 47c-1.4019 0-2.5136-.4527-3.3547-1.3483-.8411-.9057-1.2517-2.043-1.2517-3.4317v-.3621c0-1.4491.4006-2.6364 1.1917-3.5723.7911-.9358 1.8524-1.3989 3.1842-1.3989 1.3118 0 2.3232.3927 3.0442 1.1876.721.795 1.0815 1.8617 1.0815 3.2101v1.4289h-5.7878l-.0201.0501c.0501.6441.2604 1.1674.6409 1.5901.3805.4226.8911.624 1.542.624.5808 0 1.0615-.0603 1.4421-.171.3805-.1207.801-.3022 1.2517-.5537l.7109 1.6205c-.4006.322-.9212.5835-1.5521.8048-.6308.2114-1.3418.3219-2.1228.3219zm-.2404-8.0908c-.4806 0-.8712.1915-1.1515.5537-.2804.3724-.4507.8654-.5208 1.4692l.0301.0403h3.2043v-.2314c0-.5535-.1302-1.0064-.3905-1.3385-.2504-.322-.6408-.4933-1.1716-.4933z"/><path d="m90.0225 45.2292 1.2517-.2718v-6.0378l-1.3919-.2718v-1.59h3.8252l.1201 1.419c.2303-.5031.5207-.8955.8812-1.1773.3605-.2817.7711-.4225 1.2417-.4225.1402 0 .2804.0098.4307.0299.1502.0202.2803.0504.3805.0806l-.2804 2.3949-1.0714-.03c-.3806 0-.7011.0702-.9514.2212-.2503.1509-.4406.3624-.5707.6441v4.7397l1.2517.2718v1.5797h-5.127v-1.5797z"/><path d="m101.758 38.6477-.911.171 1.282 4.3574.17.9159h.05l.19-.9159 1.262-4.3471-.931-.1813v-1.5901h4.396v1.5901l-.841.1307-2.854 8.0205h-2.504l-2.8636-8.0205-.8411-.1307v-1.5901h4.3957z"/><path d="m108.207 45.2291 1.262-.2717v-6.0379l-1.402-.2717v-1.5901h4.015v7.8997l1.252.2717v1.5798h-5.137v-1.5798zm3.875-10.496h-2.613v-1.9724h2.613z"/><path d="m118.571 44.9777c.471 0 .841-.1411 1.122-.4128.28-.2717.42-.6338.42-1.0967h2.364l.03.0501c.02.9862-.341 1.8113-1.102 2.4755s-1.702.9965-2.834.9965c-1.442 0-2.563-.463-3.344-1.3788-.781-.9157-1.172-2.1032-1.172-3.5422v-.2718c0-1.439.401-2.6164 1.202-3.5422s1.952-1.3886 3.434-1.3886c.782 0 1.482.1209 2.103.3523.621.2315 1.142.5635 1.552.9862l.04 2.6062h-2.122l-.431-1.5193c-.13-.1107-.29-.2116-.481-.2821-.19-.0704-.41-.1105-.65-.1105-.741 0-1.262.2717-1.573.8151-.3.5435-.46 1.2379-.46 2.0933v.2717c0 .8755.14 1.5697.42 2.103.281.5334.771.7951 1.482.7951z"/><path d="m128.234 47c-1.402 0-2.513-.4527-3.354-1.3483-.842-.9057-1.252-2.043-1.252-3.4317v-.3621c0-1.4491.401-2.6364 1.192-3.5723.791-.9358 1.852-1.3989 3.184-1.3989 1.312 0 2.323.3927 3.044 1.1876.721.795 1.081 1.8617 1.081 3.2101v1.4289h-5.787l-.02.0501c.05.6441.26 1.1674.641 1.5901.38.4126.891.624 1.542.624.58 0 1.061-.0603 1.442-.171.38-.1207.801-.3022 1.251-.5537l.711 1.6205c-.4.322-.921.5835-1.552.8048-.631.2214-1.342.3219-2.123.3219zm-.23-8.0908c-.481 0-.871.1915-1.152.5537-.28.3724-.45.8654-.52 1.4692l.03.0403h3.204v-.2314c0-.5535-.13-1.0064-.39-1.3385-.261-.322-.651-.4933-1.172-.4933z"/></g><path d="m35.8288 3.346-4.9569 2.49564-1.8925.95619-22.13012 11.13977-5.7978 2.9182c-.480655.2415-1.05148-.1106-1.05148-.654v-5.7058l22.1301-11.13969 1.9427-.97634 4.5862-2.3044964c.2003-.1006315.4506-.1006315.6509 0z" fill="url(#a)"/><path d="m27.4272 14.4863-6.0883 3.0691v11.0591l6.0883 3.0696z" fill="url(#b)"/><path d="m27.4273 12.2222v5.7057l-26.37582 13.2531c-.480655.2415-1.05148-.1106-1.05148-.654v-5.7063l26.3758-13.253c.4907-.2416 1.0515.1111 1.0515.6545z" fill="url(#c)"/><path d="m27.4273 45.5009v-6.8934l-27.4273-13.7867v6.4408c0 .2717.160242.5333.400569.654z" fill="url(#d)"/><path d="m20.568 24.831-3.4247-1.7208-10.29402-5.1726-6.84928-3.4415v6.4403c0 .2717.160242.5333.400569.654l3.024131 1.5198 6.8593 3.4415 10.284 5.1726 5.8078 2.9182c.4807.2415 1.0515-.1106 1.0515-.654v-5.7057z" fill="url(#e)"/><path d="m57.979 14.4865v5.7057c0 .5434-.5708.8955-1.0515.654l-27.948-14.05843 1.8926-.9557 4.9568-2.49564z" fill="url(#f)"/><path d="m57.9791 14.4863v6.4403c0 .2717-.1603.5333-.4006.654l-20.1674 10.1335-6.8593 3.4415v-6.4403c0-.2717.1602-.5333.4005-.654z" fill="url(#g)"/><path d="m30.5415 35.1659v10.3348l6.1384-3.0793v-10.3447z" fill="url(#h)"/></svg>